<svg width="1008" height="1020" viewBox="0 0 1008 1020" fill="none" xmlns="http://www.w3.org/2000/svg">
<ellipse cx="53.4854" cy="75.3806" rx="53.4854" ry="75.3806" transform="matrix(-0.952662 -0.304031 -0.270333 0.962767 874.663 275.522)" fill="white"/>
<ellipse cx="53.4854" cy="75.3806" rx="53.4854" ry="75.3806" transform="matrix(0.952662 -0.304031 0.270333 0.962767 165 272.522)" fill="white"/>
<ellipse cx="62.7578" cy="105.915" rx="62.7578" ry="105.915" transform="matrix(0.989199 -0.14658 0.0912441 0.995829 550 146.398)" fill="white"/>
<ellipse cx="62.7578" cy="105.915" rx="62.7578" ry="105.915" transform="matrix(-0.989199 -0.14658 -0.0912441 0.995829 489.488 146.398)" fill="white"/>
<path d="M506 918.331C500.955 918.337 495.974 917.197 491.433 914.998C479.8 909.331 206 774.031 206 551.664C206 518.703 215.774 486.482 234.086 459.076C252.397 431.669 278.424 410.307 308.876 397.691C339.327 385.075 372.835 381.772 405.164 388.199C437.492 394.626 467.189 410.494 490.5 433.798L506 449.298L521.5 433.798C544.811 410.494 574.508 394.626 606.836 388.199C639.165 381.772 672.673 385.075 703.124 397.691C733.576 410.307 759.603 431.669 777.914 459.076C796.226 486.482 806 518.703 806 551.664C806 773.198 532.267 909.264 520.6 914.998C516.049 917.202 511.056 918.342 506 918.331Z" fill="white"/>
</svg>
