<svg xmlns="http://www.w3.org/2000/svg" xmlns:xlink="http://www.w3.org/1999/xlink" version="1.1" x="0px" y="0px" viewBox="0 0 64 80" style="enable-background:new 0 0 64 64;" xml:space="preserve"><g><path d="M15.65,29.79v18c0,3.94,3.2,7.14,7.14,7.14h18.42c3.94,0,7.14-3.2,7.14-7.14v-18c3.04-0.81,5.29-3.6,5.29-6.9   c0-3.96-3.21-7.17-7.16-7.17c-0.76,0-1.5,0.13-2.18,0.35c-0.09-3.88-3.26-7-7.17-7c-2.01,0-3.83,0.84-5.13,2.18   c-1.3-1.34-3.12-2.18-5.13-2.18c-3.91,0-7.08,3.12-7.17,7c-0.68-0.22-1.42-0.35-2.18-0.35c-3.95,0-7.16,3.21-7.16,7.17   C10.36,26.19,12.61,28.98,15.65,29.79z M42.98,21.53c1.59-1.34,3.73-1.43,4.79-0.18s0.63,3.35-0.96,4.7s-3.74,1.43-4.8,0.18   C40.95,24.99,41.39,22.88,42.98,21.53z M34.04,16.71c0.63-1.99,2.39-3.21,3.96-2.72c1.56,0.48,2.32,2.49,1.7,4.48   s-2.39,3.21-3.95,2.73C34.18,20.71,33.42,18.7,34.04,16.71z M26,13.99c1.57-0.49,3.33,0.73,3.96,2.72c0.62,1.99-0.14,4-1.71,4.49   c-1.56,0.48-3.33-0.74-3.95-2.73S24.44,14.47,26,13.99z M26.73,27.51c1.02-1.86,3-3.13,5.27-3.13s4.25,1.27,5.27,3.13   c0.89,1.63,2.37,2.81,3.94,3.8c2.01,1.27,3.21,3.71,2.65,6.36c-0.48,2.32-2.39,4.17-4.72,4.6c-1.09,0.2-2.14,0.11-3.08-0.21   c-2.62-0.9-5.5-0.9-8.12,0c-0.94,0.32-1.99,0.41-3.08,0.21c-2.33-0.43-4.24-2.28-4.72-4.6c-0.56-2.65,0.64-5.09,2.65-6.36   C24.36,30.32,25.84,29.14,26.73,27.51z M16.23,21.35c1.06-1.25,3.2-1.16,4.79,0.18c1.59,1.35,2.03,3.46,0.97,4.7   c-1.06,1.25-3.21,1.17-4.8-0.18S15.17,22.6,16.23,21.35z"/></g></svg>